<svg xmlns="http://www.w3.org/2000/svg" viewBox="0 0 24 24" fill="currentColor">
    <path d="M12.158 12.786l-2.698 7.84c.806.236 1.657.365 2.54.365 1.047 0 2.051-.181 2.986-.517a.578.578 0 01-.046-.089l-2.782-7.599zM3.009 12c0 3.559 2.068 6.634 5.067 8.092L3.788 8.341A8.973 8.973 0 003.009 12zm15.614-.708c0-1.112-.399-1.881-.74-2.48-.456-.74-.883-1.367-.883-2.108 0-.825.627-1.595 1.51-1.595.04 0 .078.005.116.007A8.959 8.959 0 0012.009 3a8.99 8.99 0 00-7.524 4.063c.211.007.41.011.581.011.944 0 2.405-.114 2.405-.114.487-.029.544.684.057.74 0 0-.489.058-1.032.086l3.283 9.767 1.972-5.92-1.404-3.847c-.486-.028-.947-.086-.947-.086-.485-.028-.428-.769.057-.741 0 0 1.489.115 2.377.115.944 0 2.405-.115 2.405-.115.486-.028.543.684.058.74 0 0-.49.058-1.033.087l3.258 9.692.899-3.004c.389-1.249.687-2.145.687-2.916zM20.991 12c0 4.963-4.027 8.99-8.991 8.99A8.998 8.998 0 013.009 12c0-4.963 4.028-8.991 8.991-8.991S20.991 7.037 20.991 12zM12 0C5.373 0 0 5.372 0 12s5.373 12 12 12 12-5.372 12-12S18.627 0 12 0z"/>
</svg>
